<?xml version="1.0" encoding="UTF-8"?>
<svg id="Capa_2" data-name="Capa 2" xmlns="http://www.w3.org/2000/svg" viewBox="0 0 115.33 100.88">
  <defs>
    <style>
      .cls-1 {
        fill: #fff;
      }

      .cls-2 {
        fill: #ee8b27;
        opacity: .15;
      }

      .cls-3 {
        fill: #e22339;
      }
    </style>
  </defs>
  <g id="Capa_1-2" data-name="Capa 1">
    <g>
      <g>
        <g>
          <g>
            <g>
              <path class="cls-3" d="m89.89,1.1c-2.07-1.45-6.69-1.46-14.56-.03-12.25,2.24-19.22,5.92-19.29,5.96l-.57.3.63.11c16.8,3.05,25.57,2.41,30.14.96,2-.64,3.2-1.43,3.92-2.13.88-.86,1.29-1.89,1.14-2.82-.17-1.04-.64-1.81-1.42-2.36Z"/>
              <path class="cls-3" d="m86.25,8.41c2-.64,3.2-1.43,3.92-2.13.88-.86,1.29-1.89,1.14-2.82-.07-.42-.19-.79-.35-1.12-1.53,9.61-35.48,5-35.48,5l.63.11c16.8,3.05,25.57,2.41,30.14.96Z"/>
            </g>
            <g>
              <path class="cls-3" d="m25.51,4.87c1.88-1.68,6.48-2.23,14.45-1.73,12.43.79,19.78,3.63,19.85,3.66l.6.23-.61.19c-16.32,5-25.11,5.39-29.82,4.48-2.06-.4-3.34-1.04-4.14-1.66-.97-.76-1.51-1.73-1.46-2.67.05-1.05.42-1.87,1.13-2.51Z"/>
              <path class="cls-2" d="m29.97,11.71c-2.06-.4-3.34-1.04-4.14-1.66-.97-.76-1.51-1.73-1.46-2.67.02-.42.09-.8.22-1.15,2.64,9.37,35.82.82,35.82.82l-.61.19c-16.32,5-25.11,5.39-29.82,4.48Z"/>
            </g>
            <rect class="cls-3" x="55.47" y="6.69" width="4.94" height="11.89"/>
          </g>
          <path class="cls-3" d="m16.14,44.94h83.61c-6.6-16.63-22.83-28.39-41.81-28.39s-35.2,11.76-41.81,28.39Z"/>
        </g>
        <path class="cls-3" d="m13.25,56.19c0,24.69,20.01,44.7,44.7,44.7s44.7-20.01,44.7-44.7c0-2.34-.18-4.64-.53-6.89H13.78c-.35,2.25-.53,4.55-.53,6.89Z"/>
        <circle class="cls-3" cx="11.46" cy="60.75" r="11.46"/>
        <circle class="cls-3" cx="103.87" cy="60.75" r="11.46"/>
        <ellipse class="cls-1" cx="57.94" cy="73.22" rx="3.68" ry="1.16"/>
        <g>
          <path class="cls-1" d="m50.18,66.96c.65-1.29,1.02-2.73,1.02-4.27,0-5.26-4.26-9.52-9.52-9.52s-9.52,4.26-9.52,9.52c0,1.54.37,2.98,1.02,4.27h17Z"/>
          <path class="cls-1" d="m82.05,66.96c.65-1.29,1.02-2.73,1.02-4.27,0-5.26-4.26-9.52-9.52-9.52s-9.52,4.26-9.52,9.52c0,1.54.37,2.98,1.02,4.27h17Z"/>
        </g>
      </g>
      <path class="cls-1" d="m50.3,81.77c1.39,2.65,4.16,4.46,7.36,4.46s5.97-1.81,7.36-4.46l-7.36-1.04-7.36,1.04Z"/>
    </g>
  </g>
</svg>