<?xml version="1.0" encoding="UTF-8"?>
<svg id="Capa_2" data-name="Capa 2" xmlns="http://www.w3.org/2000/svg" viewBox="0 0 120.56 105.45">
  <defs>
    <style>
      .cls-1 {
        fill: #fff;
      }

      .cls-2 {
        fill: #90A6FF;
      }

      .cls-3 {
        fill: #90A6FF;
        opacity: .15;
      }
    </style>
  </defs>
  <g id="Capa_1-2" data-name="Capa 1">
    <g>
      <g>
        <g>
          <g>
            <g>
              <path class="cls-2" d="m93.96,1.15c-2.16-1.52-7-1.53-15.22-.03-12.81,2.34-20.09,6.19-20.16,6.23l-.59.32.66.12c17.56,3.19,26.72,2.52,31.51,1.01,2.09-.66,3.34-1.49,4.09-2.23.92-.9,1.35-1.98,1.19-2.95-.18-1.09-.66-1.89-1.48-2.46Z"/>
              <path class="cls-3" d="m90.16,8.79c2.09-.66,3.34-1.49,4.09-2.23.92-.9,1.35-1.98,1.19-2.95-.07-.43-.2-.82-.37-1.17-1.6,10.05-37.08,5.22-37.08,5.22l.66.12c17.56,3.19,26.72,2.52,31.51,1.01Z"/>
            </g>
            <g>
              <path class="cls-2" d="m26.66,5.09c1.97-1.76,6.77-2.33,15.11-1.8,12.99.83,20.68,3.8,20.75,3.83l.62.25-.64.2c-17.06,5.22-26.25,5.63-31.17,4.68-2.15-.42-3.5-1.09-4.33-1.74-1.02-.79-1.57-1.81-1.53-2.79.05-1.1.44-1.96,1.18-2.62Z"/>
              <path class="cls-3" d="m31.33,12.24c-2.15-.42-3.5-1.09-4.33-1.74-1.02-.79-1.57-1.81-1.53-2.79.02-.44.1-.84.23-1.21,2.76,9.79,37.44.86,37.44.86l-.64.2c-17.06,5.22-26.25,5.63-31.17,4.68Z"/>
            </g>
            <rect class="cls-2" x="57.99" y="6.99" width="5.16" height="12.43"/>
          </g>
          <path class="cls-2" d="m16.87,46.97h87.4c-6.9-17.38-23.86-29.67-43.7-29.67s-36.8,12.29-43.7,29.67Z"/>
        </g>
        <path class="cls-2" d="m13.85,58.73c0,25.8,20.92,46.72,46.72,46.72s46.72-20.92,46.72-46.72c0-2.45-.19-4.86-.55-7.2H14.4c-.36,2.35-.55,4.75-.55,7.2Z"/>
        <circle class="cls-2" cx="11.98" cy="63.51" r="11.98"/>
        <circle class="cls-2" cx="108.58" cy="63.51" r="11.98"/>
        <ellipse class="cls-1" cx="60.57" cy="76.54" rx="3.85" ry="1.22"/>
        <g>
          <path class="cls-1" d="m52.45,70c.68-1.34,1.07-2.86,1.07-4.46,0-5.5-4.45-9.95-9.95-9.95s-9.95,4.45-9.95,9.95c0,1.61.39,3.12,1.07,4.46h17.77Z"/>
          <path class="cls-1" d="m85.77,70c.68-1.34,1.07-2.86,1.07-4.46,0-5.5-4.45-9.95-9.95-9.95s-9.95,4.45-9.95,9.95c0,1.61.39,3.12,1.07,4.46h17.77Z"/>
        </g>
      </g>
      <path class="cls-1" d="m52.58,85.48c1.45,2.77,4.35,4.66,7.7,4.66s6.24-1.89,7.7-4.66l-7.7-1.09-7.7,1.09Z"/>
    </g>
  </g>
</svg>