<?xml version="1.0" encoding="UTF-8"?>
<svg id="Capa_2" data-name="Capa 2" xmlns="http://www.w3.org/2000/svg" xmlns:xlink="http://www.w3.org/1999/xlink" viewBox="0 0 357.91 59.68">
  <defs>
    <style>
      .cls-1 {
        stroke: url(#Degradado_sin_nombre_10-2);
      }

      .cls-1, .cls-2, .cls-3, .cls-4 {
        fill: none;
      }

      .cls-1, .cls-2, .cls-4 {
        stroke-miterlimit: 10;
        stroke-width: .59px;
      }

      .cls-2 {
        stroke: url(#Degradado_sin_nombre_10-3);
      }

      .cls-5 {
        clip-path: url(#clippath);
      }

      .cls-4 {
        stroke: url(#Degradado_sin_nombre_10);
      }
    </style>
    <clipPath id="clippath">
      <rect class="cls-3" width="357.91" height="59.68"/>
    </clipPath>
    <linearGradient id="Degradado_sin_nombre_10" data-name="Degradado sin nombre 10" x1="-387.16" y1="63.24" x2="-267.8" y2="63.24" gradientTransform="translate(361.77 327.78) rotate(90)" gradientUnits="userSpaceOnUse">
      <stop offset="0" stop-color="#d24d92"/>
      <stop offset="1" stop-color="#433c7e"/>
    </linearGradient>
    <linearGradient id="Degradado_sin_nombre_10-2" data-name="Degradado sin nombre 10" y1="319.39" y2="319.39" xlink:href="#Degradado_sin_nombre_10"/>
    <linearGradient id="Degradado_sin_nombre_10-3" data-name="Degradado sin nombre 10" x1="-387.16" y1="191.32" x2="-267.8" y2="191.32" xlink:href="#Degradado_sin_nombre_10"/>
  </defs>
  <g id="Capa_1-2" data-name="Capa 1">
    <g class="cls-5">
      <g>
        <path class="cls-4" d="m239.15.3c0-32.74,26.64-59.38,59.38-59.38s59.38,26.64,59.38,59.38-26.64,59.38-59.38,59.38S239.15,33.05,239.15.3Zm93.64,0c0-18.89-15.37-34.26-34.26-34.26s-34.26,15.37-34.26,34.26,15.37,34.26,34.26,34.26,34.26-15.37,34.26-34.26Z"/>
        <path class="cls-1" d="m-17,.3c0-32.74,26.64-59.38,59.38-59.38S101.77-32.44,101.77.3s-26.64,59.38-59.38,59.38S-17,33.05-17,.3ZM76.64.3c0-18.89-15.37-34.26-34.26-34.26S8.12-18.59,8.12.3s15.37,34.26,34.26,34.26S76.64,19.19,76.64.3Z"/>
        <path class="cls-2" d="m126.48,57.28l-13-13c-3.2-3.2-3.2-8.39,0-11.59L145.87.3l-32.39-32.39c-3.2-3.2-3.2-8.39,0-11.59l13-13c3.2-3.2,8.39-3.2,11.59,0l32.39,32.39,32.39-32.39c3.2-3.2,8.39-3.2,11.59,0l13,13c3.2,3.2,3.2,8.39,0,11.59L195.05.3l32.39,32.39c3.2,3.2,3.2,8.39,0,11.59l-13,13c-3.2,3.2-8.39,3.2-11.59,0l-32.39-32.39-32.39,32.39c-3.2,3.2-8.39,3.2-11.59,0Z"/>
      </g>
    </g>
  </g>
</svg>