<?xml version="1.0" encoding="UTF-8"?>
<svg id="Capa_2" data-name="Capa 2" xmlns="http://www.w3.org/2000/svg" xmlns:xlink="http://www.w3.org/1999/xlink" viewBox="0 0 1436.29 208.19">
  <defs>
    <style>
      .cls-1 {
        stroke: url(#Degradado_sin_nombre_10);
      }

      .cls-1, .cls-2, .cls-3, .cls-4, .cls-5, .cls-6, .cls-7, .cls-8, .cls-9, .cls-10 {
        fill: none;
        stroke-miterlimit: 10;
        stroke-width: .8px;
      }

      .cls-2 {
        stroke: url(#Degradado_sin_nombre_10-4);
      }

      .cls-3 {
        stroke: url(#Degradado_sin_nombre_10-7);
      }

      .cls-4 {
        stroke: url(#Degradado_sin_nombre_10-10);
      }

      .cls-5 {
        stroke: url(#Degradado_sin_nombre_10-9);
      }

      .cls-6 {
        stroke: url(#Degradado_sin_nombre_10-8);
      }

      .cls-7 {
        stroke: url(#Degradado_sin_nombre_10-2);
      }

      .cls-8 {
        stroke: url(#Degradado_sin_nombre_10-6);
      }

      .cls-9 {
        stroke: url(#Degradado_sin_nombre_10-3);
      }

      .cls-10 {
        stroke: url(#Degradado_sin_nombre_10-5);
      }
    </style>
    <linearGradient id="Degradado_sin_nombre_10" data-name="Degradado sin nombre 10" x1="0" y1="126.64" x2="138.08" y2="126.64" gradientUnits="userSpaceOnUse">
      <stop offset="0" stop-color="#d24d92"/>
      <stop offset="1" stop-color="#433c7e"/>
    </linearGradient>
    <linearGradient id="Degradado_sin_nombre_10-2" data-name="Degradado sin nombre 10" x1="162.98" x2="205.48" xlink:href="#Degradado_sin_nombre_10"/>
    <linearGradient id="Degradado_sin_nombre_10-3" data-name="Degradado sin nombre 10" x1="236.24" x2="369.14" xlink:href="#Degradado_sin_nombre_10"/>
    <linearGradient id="Degradado_sin_nombre_10-4" data-name="Degradado sin nombre 10" x1="386.6" y1="102.97" x2="544.3" y2="102.97" xlink:href="#Degradado_sin_nombre_10"/>
    <linearGradient id="Degradado_sin_nombre_10-5" data-name="Degradado sin nombre 10" x1="561.75" x2="719.45" xlink:href="#Degradado_sin_nombre_10"/>
    <linearGradient id="Degradado_sin_nombre_10-6" data-name="Degradado sin nombre 10" x1="750.21" x2="792.71" xlink:href="#Degradado_sin_nombre_10"/>
    <linearGradient id="Degradado_sin_nombre_10-7" data-name="Degradado sin nombre 10" x1="817.61" x2="959.3" xlink:href="#Degradado_sin_nombre_10"/>
    <linearGradient id="Degradado_sin_nombre_10-8" data-name="Degradado sin nombre 10" x1="976.08" x2="1118.45" xlink:href="#Degradado_sin_nombre_10"/>
    <linearGradient id="Degradado_sin_nombre_10-9" data-name="Degradado sin nombre 10" x1="1143.57" x2="1277.37" xlink:href="#Degradado_sin_nombre_10"/>
    <linearGradient id="Degradado_sin_nombre_10-10" data-name="Degradado sin nombre 10" x1="1298.21" x2="1436.29" xlink:href="#Degradado_sin_nombre_10"/>
  </defs>
  <g id="Capa_1-2" data-name="Capa 1">
    <g>
      <path class="cls-1" d="m66.22,47.74c10.37,0,19.84,1.54,28.4,4.62,8.57,3.08,15.97,7.4,22.2,12.96,6.23,5.56,11.12,12.21,14.65,19.95,3.53,7.74,5.52,16.2,5.97,25.36.15,3.16.23,6.05.23,8.68v14.99c0,2.56-.08,5.34-.23,8.34-.45,9.32-2.41,17.81-5.86,25.47-3.46,7.66-8.23,14.28-14.31,19.84-6.09,5.56-13.34,9.88-21.75,12.96-8.42,3.08-17.81,4.62-28.18,4.62H6.49c-1.66,0-3.08-.6-4.28-1.8-1.2-1.2-1.8-2.63-1.8-4.28V53.83c0-1.65.6-3.08,1.8-4.28,1.2-1.2,2.63-1.8,4.28-1.8h59.74Zm29.53,61.99c-.9-17.28-11.12-25.92-30.66-25.92h-22.99v85.66h24.12c18.94,0,28.78-8.64,29.53-25.92.15-3.16.23-6.12.23-8.9v-16.12c0-2.7-.08-5.63-.23-8.79Z"/>
      <path class="cls-7" d="m169.47,205.54c-1.66,0-3.08-.6-4.28-1.8-1.2-1.2-1.8-2.63-1.8-4.28V53.83c0-1.65.6-3.08,1.8-4.28,1.2-1.2,2.63-1.8,4.28-1.8h29.53c1.65,0,3.08.6,4.28,1.8,1.2,1.21,1.8,2.63,1.8,4.28v145.62c0,1.66-.6,3.08-1.8,4.28-1.2,1.2-2.63,1.8-4.28,1.8h-29.53Z"/>
      <path class="cls-9" d="m339.21,205.54c-2.56,0-4.62-.68-6.2-2.03-1.58-1.35-2.59-2.4-3.04-3.16l-51.62-77.09v76.19c0,1.66-.6,3.08-1.8,4.28-1.2,1.2-2.63,1.8-4.28,1.8h-29.53c-1.66,0-3.08-.6-4.28-1.8-1.2-1.2-1.8-2.63-1.8-4.28V53.83c0-1.65.6-3.08,1.8-4.28,1.2-1.2,2.63-1.8,4.28-1.8h23.44c2.55,0,4.62.68,6.2,2.03,1.58,1.35,2.59,2.41,3.04,3.16l51.62,77.1V53.83c0-1.65.6-3.08,1.8-4.28,1.2-1.2,2.63-1.8,4.28-1.8h29.53c1.65,0,3.08.6,4.28,1.8,1.2,1.21,1.8,2.63,1.8,4.28v145.62c0,1.66-.6,3.08-1.8,4.28s-2.63,1.8-4.28,1.8h-23.44Z"/>
      <path class="cls-2" d="m483.71,47.74c3,0,5.3.83,6.88,2.48,1.58,1.65,2.67,3.31,3.27,4.96l49.14,142.02c.6,1.5.9,2.63.9,3.38,0,1.35-.49,2.52-1.47,3.49-.98.98-2.14,1.47-3.49,1.47h-28.4c-3.01,0-5.15-.64-6.42-1.92-1.28-1.28-2.07-2.52-2.37-3.72l-6.31-18.71h-59.96l-6.31,18.71c-.3,1.2-1.09,2.44-2.37,3.72-1.28,1.28-3.42,1.92-6.42,1.92h-28.4c-1.35,0-2.52-.49-3.49-1.47-.98-.98-1.47-2.14-1.47-3.49,0-.75.3-1.88.9-3.38l49.14-142.02c.6-1.65,1.69-3.3,3.27-4.96,1.58-1.65,3.87-2.48,6.88-2.48h36.52Zm-36.52,98.51h36.52l-18.26-54.1-18.26,54.1ZM469.51,4.68c1.65-1.95,3.04-3.16,4.17-3.61,1.13-.45,2.52-.68,4.17-.68h32.24c2.85,0,4.28,1.5,4.28,4.51,0,1.05-.38,1.95-1.13,2.71l-30.43,25.02c-1.2,1.05-2.48,1.95-3.83,2.7-1.35.75-3.23,1.13-5.64,1.13h-22.09c-2.41,0-3.61-1.2-3.61-3.61,0-1.2.37-2.18,1.13-2.93l20.74-25.25Z"/>
      <path class="cls-10" d="m628.09,165.75c-1.28-1.27-2.29-2.51-3.04-3.72l-21.19-37.2v74.62c0,1.66-.6,3.08-1.8,4.28-1.2,1.2-2.63,1.8-4.28,1.8h-29.53c-1.66,0-3.08-.6-4.28-1.8-1.2-1.2-1.8-2.63-1.8-4.28V53.83c0-1.65.6-3.08,1.8-4.28,1.2-1.2,2.63-1.8,4.28-1.8h26.15c3,0,5.26.83,6.76,2.48,1.5,1.65,2.48,2.86,2.93,3.61l36.52,62.44,36.52-62.44c.45-.75,1.43-1.95,2.93-3.61,1.5-1.65,3.76-2.48,6.76-2.48h26.15c1.65,0,3.08.6,4.28,1.8,1.2,1.21,1.8,2.63,1.8,4.28v145.62c0,1.66-.6,3.08-1.8,4.28-1.2,1.2-2.63,1.8-4.28,1.8h-29.53c-1.66,0-3.08-.6-4.28-1.8-1.2-1.2-1.8-2.63-1.8-4.28v-74.62l-21.19,37.2c-.75,1.2-1.77,2.44-3.04,3.72s-3.04,1.92-5.3,1.92h-14.43c-2.25,0-4.02-.64-5.3-1.92Z"/>
      <path class="cls-8" d="m756.69,205.54c-1.66,0-3.08-.6-4.28-1.8-1.2-1.2-1.8-2.63-1.8-4.28V53.83c0-1.65.6-3.08,1.8-4.28,1.2-1.2,2.63-1.8,4.28-1.8h29.53c1.65,0,3.08.6,4.28,1.8,1.2,1.21,1.8,2.63,1.8,4.28v145.62c0,1.66-.6,3.08-1.8,4.28-1.2,1.2-2.63,1.8-4.28,1.8h-29.53Z"/>
      <path class="cls-3" d="m860.16,107.7c-.15,1.95-.26,4.66-.34,8.12-.08,3.46-.11,7.03-.11,10.71s.04,7.29.11,10.82c.07,3.53.19,6.28.34,8.23.3,3.46.98,6.76,2.03,9.92,1.05,3.16,2.71,5.94,4.96,8.34,2.25,2.41,5.11,4.32,8.57,5.75,3.45,1.43,7.74,2.14,12.85,2.14s9.32-.6,12.62-1.8c3.3-1.2,6.01-2.67,8.12-4.4,2.1-1.73,3.72-3.64,4.85-5.75,1.13-2.1,1.99-4.06,2.59-5.86.75-2.4,1.58-4.09,2.48-5.07.9-.98,2.63-1.47,5.18-1.47h29.53c1.35,0,2.51.49,3.49,1.47.98.98,1.47,2.14,1.47,3.49-.15,7.66-2.03,14.88-5.64,21.64-3.61,6.76-8.57,12.62-14.88,17.58-6.31,4.96-13.72,8.9-22.2,11.83-8.49,2.93-17.7,4.4-27.61,4.4-10.82,0-20.48-1.62-28.97-4.85-8.49-3.23-15.74-7.63-21.75-13.19-6.01-5.56-10.63-12.06-13.86-19.5-3.23-7.44-5.07-15.29-5.52-23.56-.3-6.16-.45-12.77-.45-19.84s.15-13.83.45-20.29c.3-8.26,2.1-16.12,5.41-23.56,3.3-7.44,7.93-13.94,13.86-19.5,5.94-5.56,13.19-9.95,21.75-13.19,8.57-3.23,18.26-4.85,29.08-4.85,9.92,0,19.12,1.47,27.61,4.4,8.49,2.93,15.89,6.88,22.2,11.83,6.31,4.96,11.27,10.82,14.88,17.58,3.61,6.76,5.48,13.98,5.64,21.64,0,1.35-.49,2.52-1.47,3.49-.98.98-2.14,1.46-3.49,1.46h-29.53c-2.56,0-4.28-.49-5.18-1.46-.9-.98-1.73-2.67-2.48-5.07-.6-1.8-1.47-3.76-2.59-5.86-1.13-2.1-2.74-4.02-4.85-5.75-2.11-1.73-4.81-3.19-8.12-4.4-3.31-1.2-7.52-1.8-12.62-1.8s-9.39.71-12.85,2.14c-3.46,1.43-6.31,3.35-8.57,5.75-2.25,2.41-3.91,5.18-4.96,8.34-1.05,3.16-1.73,6.46-2.03,9.92Z"/>
      <path class="cls-6" d="m976.93,106.57c.45-8.41,2.29-16.34,5.52-23.78,3.23-7.44,7.81-13.9,13.75-19.39,5.94-5.48,13.15-9.84,21.64-13.07,8.49-3.23,18.29-4.85,29.42-4.85s20.74,1.62,29.3,4.85c8.57,3.23,15.82,7.59,21.75,13.07,5.93,5.49,10.52,11.95,13.75,19.39,3.23,7.44,5.07,15.37,5.52,23.78.3,6.46.45,13.23.45,20.29s-.15,13.68-.45,19.84c-.45,8.42-2.29,16.34-5.52,23.78-3.23,7.44-7.82,13.94-13.75,19.5-5.94,5.56-13.19,9.92-21.75,13.07-8.57,3.16-18.34,4.73-29.3,4.73s-20.93-1.58-29.42-4.73c-8.49-3.16-15.71-7.51-21.64-13.07-5.94-5.56-10.52-12.06-13.75-19.5-3.23-7.44-5.07-15.36-5.52-23.78-.3-6.16-.45-12.77-.45-19.84s.15-13.83.45-20.29Zm98.96,39c.15-2.71.3-5.71.45-9.02.15-3.3.23-6.69.23-10.14s-.08-6.8-.23-10.03c-.15-3.23-.3-6.12-.45-8.68-.3-3.75-1.09-7.21-2.37-10.37-1.28-3.16-3.08-5.9-5.41-8.23-2.33-2.33-5.22-4.17-8.68-5.52-3.46-1.35-7.52-2.03-12.17-2.03s-8.72.68-12.17,2.03c-3.46,1.35-6.35,3.19-8.68,5.52-2.33,2.33-4.13,5.07-5.41,8.23-1.28,3.16-2.07,6.62-2.37,10.37-.3,2.56-.49,5.45-.56,8.68-.08,3.23-.11,6.58-.11,10.03s.04,6.84.11,10.14c.07,3.31.26,6.31.56,9.02.6,7.52,3.19,13.75,7.78,18.71,4.58,4.96,11.53,7.44,20.85,7.44s16.23-2.48,20.74-7.44c4.51-4.96,7.14-11.19,7.89-18.71Z"/>
      <path class="cls-5" d="m1214.52,47.74c9.62,0,18.26,1.09,25.92,3.27,7.66,2.18,14.2,5.49,19.61,9.92,5.41,4.44,9.58,9.96,12.51,16.57,2.93,6.62,4.4,14.28,4.4,22.99s-1.47,16.61-4.4,23.22c-2.93,6.62-7.1,12.1-12.51,16.46-5.41,4.36-11.95,7.66-19.61,9.92-7.66,2.25-16.31,3.38-25.92,3.38h-28.85v45.99c0,1.66-.6,3.08-1.8,4.28-1.2,1.2-2.63,1.8-4.28,1.8h-29.53c-1.66,0-3.08-.6-4.28-1.8-1.2-1.2-1.8-2.63-1.8-4.28V53.83c0-1.65.6-3.08,1.8-4.28,1.2-1.2,2.63-1.8,4.28-1.8h64.47Zm-28.85,70.56h27.73c6.31,0,11.53-1.39,15.67-4.17,4.13-2.78,6.2-7.33,6.2-13.64s-2.07-10.86-6.2-13.64c-4.13-2.78-9.35-4.17-15.67-4.17h-27.73v35.62Z"/>
      <path class="cls-4" d="m1364.43,47.74c10.37,0,19.84,1.54,28.4,4.62,8.57,3.08,15.97,7.4,22.2,12.96,6.23,5.56,11.12,12.21,14.65,19.95,3.53,7.74,5.52,16.2,5.97,25.36.15,3.16.23,6.05.23,8.68v14.99c0,2.56-.08,5.34-.23,8.34-.45,9.32-2.41,17.81-5.86,25.47-3.46,7.66-8.23,14.28-14.31,19.84-6.09,5.56-13.34,9.88-21.75,12.96-8.42,3.08-17.81,4.62-28.18,4.62h-60.86c-1.66,0-3.08-.6-4.28-1.8-1.2-1.2-1.8-2.63-1.8-4.28V53.83c0-1.65.6-3.08,1.8-4.28,1.2-1.2,2.63-1.8,4.28-1.8h59.74Zm29.53,61.99c-.9-17.28-11.12-25.92-30.66-25.92h-22.99v85.66h24.12c18.94,0,28.78-8.64,29.53-25.92.15-3.16.23-6.12.23-8.9v-16.12c0-2.7-.08-5.63-.23-8.79Z"/>
    </g>
  </g>
</svg>